HIERARCHY
ROOT Hips
{
	OFFSET -3.958830 18.904000 13.208200
	CHANNELS 6 Xposition Yposition Zposition Zrotation Yrotation Xrotation 
	JOINT LHipJoint
	{
		OFFSET 0.000000 0.000000 0.000000
		CHANNELS 3 Zrotation Yrotation Xrotation
		JOINT LeftUpLeg
		{
			OFFSET 1.800000 -1.400000 0.085000
			CHANNELS 3 Zrotation Yrotation Xrotation
			JOINT LeftLeg
			{
				OFFSET 2.215000 -6.000000 0.000000
				CHANNELS 3 Zrotation Yrotation Xrotation
				JOINT LeftFoot
				{
					OFFSET 2.500000 -6.900000 0.000000
					CHANNELS 3 Zrotation Yrotation Xrotation
					JOINT LeftToeBase
					{
						OFFSET 0.200000 -0.500000 1.950000
						CHANNELS 3 Zrotation Yrotation Xrotation
						End Site
						{
							OFFSET 0.000000 0.000000 0.000000
						}
					}
				}
			}
		}
	}
	JOINT RHipJoint
	{
		OFFSET 0.000000 0.000000 0.000000
		CHANNELS 3 Zrotation Yrotation Xrotation
		JOINT RightUpLeg
		{
			OFFSET -1.800000 -1.400000 0.085000
			CHANNELS 3 Zrotation Yrotation Xrotation
			JOINT RightLeg
			{
				OFFSET -2.215000 -6.000000 0.000000
				CHANNELS 3 Zrotation Yrotation Xrotation
				JOINT RightFoot
				{
					OFFSET -2.500000 -6.900000 0.000000
					CHANNELS 3 Zrotation Yrotation Xrotation
					JOINT RightToeBase
					{
						OFFSET -0.200000 -0.500000 1.950000
						CHANNELS 3 Zrotation Yrotation Xrotation
						End Site
						{
							OFFSET 0.000000 0.000000 0.000000
						}
					}
				}
			}
		}
	}
	JOINT LowerBack
	{
		OFFSET 0.000000 0.000000 0.000000
		CHANNELS 3 Zrotation Yrotation Xrotation
		JOINT Spine
		{
			OFFSET -0.087000 1.940000 -0.288900
			CHANNELS 3 Zrotation Yrotation Xrotation
			JOINT Spine1
			{
				OFFSET 0.000000 1.950000 0.060000
				CHANNELS 3 Zrotation Yrotation Xrotation
				JOINT Neck
				{
					OFFSET 0.000000 0.000000 0.000000
					CHANNELS 3 Zrotation Yrotation Xrotation
					JOINT Neck1
					{
						OFFSET 0.000000 1.600000 0.340000
						CHANNELS 3 Zrotation Yrotation Xrotation
						JOINT Head
						{
							OFFSET 0.000000 1.667000 -0.240000
							CHANNELS 3 Zrotation Yrotation Xrotation
							End Site
							{
								OFFSET 0.000000 0.000000 0.000000
							}
						}
					}
				}
				JOINT LeftShoulder
				{
					OFFSET 0.000000 0.000000 0.000000
					CHANNELS 3 Zrotation Yrotation Xrotation
					JOINT LeftArm
					{
						OFFSET 2.700000 1.550000 -0.730000
						CHANNELS 3 Zrotation Yrotation Xrotation
						JOINT LeftForeArm
						{
							OFFSET 5.450000 0.000000 0.000000
							CHANNELS 3 Zrotation Yrotation Xrotation
							JOINT LeftHand
							{
								OFFSET 3.450000 0.000000 0.000000
								CHANNELS 3 Zrotation Yrotation Xrotation
								JOINT LeftHandIndex1
								{
									OFFSET 0.750000 0.000000 0.000000
									CHANNELS 3 Zrotation Yrotation Xrotation
									End Site
									{
										OFFSET 0.000000 0.000000 0.000000
									}
								}
							}
						}
					}
				}
				JOINT RightShoulder
				{
					OFFSET 0.000000 0.000000 0.000000
					CHANNELS 3 Zrotation Yrotation Xrotation
					JOINT RightArm
					{
						OFFSET -2.700000 1.550000 -0.730000
						CHANNELS 3 Zrotation Yrotation Xrotation
						JOINT RightForeArm
						{
							OFFSET -5.450000 0.000000 0.000000
							CHANNELS 3 Zrotation Yrotation Xrotation
							JOINT RightHand
							{
								OFFSET -3.450000 0.000000 0.000000
								CHANNELS 3 Zrotation Yrotation Xrotation
								JOINT RightHandIndex1
								{
									OFFSET -0.750000 0.000000 0.000000
									CHANNELS 3 Zrotation Yrotation Xrotation
									End Site
									{
										OFFSET 0.000000 0.000000 0.000000
									}
								}
							}
						}
					}
				}
			}
		}
	}
}
MOTION
Frames: 6
Frame Time: 0.016667
0.437020 16.784250 -1.551780 -1.247822 -8.499847 10.899286 -15.002172 11.745158 3.631577 0.998009 -6.108062 -27.800364 -13.531923 11.514165 32.831269 -0.095638 7.086352 2.111627 0.061750 -0.252190 0.126840 18.694304 -9.243705 4.417922 -0.330257 9.367491 -44.756731 8.125521 -3.282705 11.679122 0.277939 -1.575336 3.844796 -0.051380 0.428400 0.188610 -4.468236 -0.906660 -8.338490 16.270401 -2.215151 14.228580 -4.075709 0.053508 0.401526 2.931405 -0.862089 -4.188900 -2.688662 2.726568 36.764745 -9.316650 6.389430 -1.732730 -21.567197 2.207673 -1.643386 -54.473802 -5.431490 -5.162214 -10.742522 -19.495077 -0.475180 -4.177447 2.778961 0.360760 0.346500 -0.238690 0.065760 15.093016 -1.580380 -0.989482 60.566021 8.586313 -5.879676 6.497432 14.563695 -0.826539 2.251737 -1.218059 -0.330760 0.224840 0.218430 -0.241470 
0.446760 16.710810 -1.551680 -0.641302 -8.281498 11.107094 -15.033299 11.636038 3.715451 0.323608 -6.593681 -28.617210 -13.437280 11.826504 34.315034 -0.035168 7.354621 2.043252 0.022310 -0.288460 0.110750 18.689077 -9.159984 4.427851 -1.018578 9.276890 -45.597725 8.346535 -3.263395 11.262465 0.305788 -1.588876 3.851845 -0.061250 0.466800 0.181570 -4.428337 -0.893616 -8.368922 15.685038 -2.215331 13.909635 -4.149782 -0.075220 0.531752 3.043170 -0.576255 -4.125305 -2.080791 2.454283 36.034216 -10.119670 6.749320 -0.807930 -21.942159 1.800939 -1.561219 -53.509960 -5.222006 -5.104915 -9.962271 -18.596014 -0.586399 -4.225542 2.753385 0.325820 0.388020 -0.270360 0.061820 15.323806 -1.406409 -1.032437 60.356151 8.765000 -5.735839 6.359192 14.552467 -0.869349 2.248452 -1.222607 -0.351230 0.238780 0.230750 -0.239180 
0.467430 16.579850 -1.553050 0.284748 -7.746167 10.970033 -15.076866 11.516882 3.869719 -0.495675 -7.348128 -29.592549 -13.514428 12.466235 36.837939 0.092554 7.851288 1.883138 0.012780 -0.303200 0.105890 18.673018 -9.037216 4.433250 -2.021444 9.100346 -46.649807 8.315068 -3.298692 11.340935 0.313788 -1.633443 3.827526 -0.070870 0.481540 0.209500 -4.351597 -0.958531 -8.459103 15.073634 -2.364937 14.217910 -4.206169 -0.245910 0.386592 3.138132 -0.393813 -4.126838 -1.686515 2.265406 35.382632 -10.624800 6.890910 -0.133380 -23.444483 0.823259 -1.411034 -51.478543 -4.674971 -5.162385 -8.229358 -17.497407 -0.814054 -4.257165 2.777005 0.293600 0.417460 -0.284530 0.059380 16.695626 -0.539669 -0.942064 58.594650 8.715590 -5.794698 5.955274 15.180721 -0.909928 2.241091 -1.250181 -0.335620 0.211130 0.235760 -0.233350 
0.493380 16.435790 -1.558150 1.149046 -6.845944 10.640292 -15.109963 11.371003 4.050974 -1.232123 -8.259676 -30.786402 -13.383372 13.338337 40.355752 0.253863 8.551777 1.664701 -0.007130 -0.318750 0.064940 18.679934 -8.863651 4.470483 -3.269713 9.051309 -48.413142 7.844976 -3.581244 13.432566 0.318219 -1.806222 3.756303 -0.069180 0.517420 0.212090 -4.322776 -1.065738 -8.564374 15.079578 -2.766446 14.745647 -4.193090 -0.512863 0.104081 2.840018 -1.073085 -4.165318 -2.864074 2.495996 34.346885 -10.520510 6.456690 0.735180 -25.286884 -0.244445 -1.218184 -48.937400 -4.028223 -5.117240 -6.721415 -16.820248 -0.945638 -4.274891 2.810307 0.255290 0.443760 -0.322680 0.065190 19.043452 1.053213 -0.715425 55.030747 8.671807 -5.668387 5.912324 15.784214 -0.878298 2.229208 -1.277148 -0.338390 0.204960 0.252550 -0.216160 
0.537650 16.313630 -1.569350 1.500120 -4.964436 9.109861 -15.106588 11.309928 4.205064 -1.851780 -9.141357 -31.159357 -12.299266 13.970546 44.795869 0.470048 9.254138 1.436195 0.043960 -0.250650 0.073910 18.701392 -8.735133 4.562008 -5.037844 8.996290 -50.412772 7.260714 -4.511635 19.250316 0.204762 -2.351509 3.531112 -0.057640 0.474550 0.219790 -4.346516 -1.215636 -8.749386 16.314136 -3.859797 16.882450 -4.857090 -0.967540 -0.818730 2.883882 -1.730904 -4.483282 -4.165239 2.435632 35.152579 -10.048040 5.461520 0.240940 -27.915420 -1.811710 -0.975231 -45.362659 -3.381254 -4.954858 -5.393347 -15.761287 -0.982154 -4.192741 2.859811 0.261620 0.394770 -0.278190 0.091690 21.405067 3.097899 -0.073266 51.264446 8.186644 -5.992038 5.491338 17.465027 -0.814956 2.230874 -1.292287 -0.289290 0.185200 0.213220 -0.188030 
0.578560 16.218990 -1.569950 1.335493 -2.322916 6.827399 -15.099177 11.279906 4.209211 -2.404495 -9.717729 -30.534667 -10.289348 14.108675 49.214145 0.607961 9.841807 1.235354 0.088480 -0.210930 0.126640 18.742924 -8.548579 4.765289 -7.380136 9.140242 -53.191580 6.404777 -6.379642 29.433056 -0.035246 -3.712512 3.021769 -0.053960 0.390390 0.189790 -4.400010 -1.445583 -8.931393 18.499820 -5.421059 19.232304 -5.939603 -1.571014 -1.395581 3.351383 -2.519480 -5.149656 -5.902495 2.397788 37.196653 -10.443310 4.690200 -1.125560 -29.183131 -3.195533 -0.721404 -43.089000 -3.219497 -4.706812 -3.556063 -14.834971 -1.070531 -4.094481 2.824743 0.330160 0.314130 -0.219830 0.082920 21.558653 4.909166 1.024415 49.399426 7.289664 -6.982522 6.041364 21.313390 -0.571167 2.197148 -1.263505 -0.278590 0.194510 0.183650 -0.207640 
